<svg xmlns="http://www.w3.org/2000/svg" viewBox="0 0 16 16"><circle cx="8" cy="8" r="7.5" fill="none" stroke="#fff" stroke-width="1.3"/><path fill="#fff" d="M8 1c-.5 1.5-1 3-1 4.5 0 0 .5 1 1 1s1-1 1-1c0-1.5-.5-3-1-4.5zM3 4c1 1 2.5 2 3.5 3.5 0 0-.5 1-1 1s-1 0-1-1c-.5-1-1-2.5-1.5-3.5zM13 4c-.5 1-1 2.5-1.5 3.5 0 0 0 1-1 1s-1-.5-1-1C10.5 6 12 5 13 4zM2 8.5c1.5 0 3.5 0 5 .5 0 0 .5.5 0 1-.5.5-2.5.5-4.5 1l-.5-2.5zm12 0l-.5 2.5c-2-.5-4-.5-4.5-1-.5-.5 0-1 0-1 1.5-.5 3.5-.5 5-.5zm-8 4c.5-1 1.5-2.5 2.5-3 0 0 .5 0 .5.5s-.5 2.5-.5 3.5c0 0-.5.5-1 .5s-.5-.5-1-1c-.3-.5-.5-1.5-.5-1.5z"/></svg>
